# This file uses centimeters as units for non-parametric coordinates.

mtllib strand.mtl
g default
v 0.000000 -1.443253 0.000000
v 43.242100 -1.443253 0.000000
v 0.000000 1.443253 0.000000
v 43.242100 1.443253 0.000000
v 0.000000 0.000000 1.443253
v 43.242100 0.000000 1.443253
v 0.000000 0.000000 -1.443253
v 43.242100 0.000000 -1.443253
vt 0.000000 0.520000
vt 1.000000 0.520000
vt 0.000000 1.000000
vt 1.000000 1.000000
vt 0.000000 0.000000
vt 1.000000 0.000000
vt 1.000000 0.480000
vt 0.000000 0.480000
vn 0.000000 0.000000 1.000000
vn 0.000000 0.000000 1.000000
vn 0.000000 0.000000 1.000000
vn 0.000000 0.000000 1.000000
vn 0.000000 1.000000 0.000000
vn 0.000000 1.000000 0.000000
vn 0.000000 1.000000 0.000000
vn 0.000000 1.000000 0.000000
s off
g strand
usemtl initialShadingGroup
f 1/1/1 2/2/2 4/4/3 3/3/4
f 5/5/5 6/6/6 8/7/7 7/8/8
